<svg width="525" height="355" viewBox="0 0 525 355" fill="none" xmlns="http://www.w3.org/2000/svg">
<g opacity="0.1">
<circle cx="92.5" cy="7.5" r="7.5" fill="#FCF4DF"/>
<circle cx="7.5" cy="7.5" r="7.5" fill="#FCF4DF"/>
<circle cx="177.5" cy="7.5" r="7.5" fill="#FCF4DF"/>
<circle cx="262.5" cy="7.5" r="7.5" fill="#FCF4DF"/>
<circle cx="347.5" cy="7.5" r="7.5" fill="#FCF4DF"/>
<circle cx="432.5" cy="7.5" r="7.5" fill="#FCF4DF"/>
<circle cx="517.5" cy="7.5" r="7.5" fill="#FCF4DF"/>
<circle cx="92.5" cy="92.5" r="7.5" fill="#FCF4DF"/>
<circle cx="7.5" cy="92.5" r="7.5" fill="#FCF4DF"/>
<circle cx="177.5" cy="92.5" r="7.5" fill="#FCF4DF"/>
<circle cx="262.5" cy="92.5" r="7.5" fill="#FCF4DF"/>
<circle cx="347.5" cy="92.5" r="7.5" fill="#FCF4DF"/>
<circle cx="432.5" cy="92.5" r="7.5" fill="#FCF4DF"/>
<circle cx="517.5" cy="92.5" r="7.5" fill="#FCF4DF"/>
<circle cx="92.5" cy="177.5" r="7.5" fill="#FCF4DF"/>
<circle cx="7.5" cy="177.5" r="7.5" fill="#FCF4DF"/>
<circle cx="177.5" cy="177.5" r="7.5" fill="#FCF4DF"/>
<circle cx="262.5" cy="177.5" r="7.5" fill="#FCF4DF"/>
<circle cx="347.5" cy="177.5" r="7.5" fill="#FCF4DF"/>
<circle cx="432.5" cy="177.5" r="7.5" fill="#FCF4DF"/>
<circle cx="517.5" cy="177.5" r="7.5" fill="#FCF4DF"/>
<circle cx="92.5" cy="262.5" r="7.5" fill="#FCF4DF"/>
<circle cx="7.5" cy="262.5" r="7.5" fill="#FCF4DF"/>
<circle cx="177.5" cy="262.5" r="7.5" fill="#FCF4DF"/>
<circle cx="262.5" cy="262.5" r="7.5" fill="#FCF4DF"/>
<circle cx="347.5" cy="262.5" r="7.5" fill="#FCF4DF"/>
<circle cx="432.5" cy="262.5" r="7.5" fill="#FCF4DF"/>
<circle cx="517.5" cy="262.5" r="7.5" fill="#FCF4DF"/>
<circle cx="92.5" cy="347.5" r="7.5" fill="#FCF4DF"/>
<circle cx="7.5" cy="347.5" r="7.5" fill="#FCF4DF"/>
<circle cx="177.5" cy="347.5" r="7.5" fill="#FCF4DF"/>
<circle cx="262.5" cy="347.5" r="7.5" fill="#FCF4DF"/>
<circle cx="347.5" cy="347.5" r="7.5" fill="#FCF4DF"/>
<circle cx="432.5" cy="347.5" r="7.5" fill="#FCF4DF"/>
<circle cx="517.5" cy="347.5" r="7.5" fill="#FCF4DF"/>
</g>
</svg>
